<?xml version="1.0" encoding="UTF-8"?>
<svg xmlns="http://www.w3.org/2000/svg" xmlns:xlink="http://www.w3.org/1999/xlink" width="60px" height="60px" viewBox="0 0 60 60" version="1.1">
<g id="surface1">
<path style=" stroke:none;fill-rule:evenodd;fill:rgb(100%,100%,100%);fill-opacity:1;" d="M 6.085938 54.128906 L 9.453125 41.835938 C 7.375 38.238281 6.28125 34.15625 6.285156 29.972656 C 6.289062 16.890625 16.933594 6.25 30.015625 6.25 C 36.367188 6.253906 42.324219 8.722656 46.804688 13.207031 C 51.285156 17.691406 53.753906 23.652344 53.75 29.992188 C 53.746094 43.074219 43.097656 53.71875 30.015625 53.71875 L 30.007812 53.71875 C 26.035156 53.714844 22.132812 52.71875 18.667969 50.828125 Z M 6.085938 54.128906 "/>
<path style=" stroke:none;fill-rule:evenodd;fill:rgb(100%,100%,100%);fill-opacity:1;" d="M 6.085938 54.753906 C 5.921875 54.753906 5.761719 54.6875 5.640625 54.570312 C 5.484375 54.410156 5.421875 54.179688 5.484375 53.964844 L 8.78125 41.921875 C 6.734375 38.289062 5.65625 34.164062 5.660156 29.976562 C 5.664062 16.546875 16.589844 5.625 30.015625 5.625 C 36.53125 5.628906 42.648438 8.164062 47.246094 12.765625 C 51.847656 17.371094 54.378906 23.488281 54.375 29.992188 C 54.371094 43.417969 43.441406 54.34375 30.015625 54.34375 C 26.03125 54.339844 22.085938 53.359375 18.585938 51.496094 L 6.242188 54.734375 C 6.191406 54.746094 6.140625 54.753906 6.085938 54.753906 Z M 6.085938 54.753906 "/>
<path style=" stroke:none;fill-rule:evenodd;fill:rgb(81.176471%,84.705882%,86.27451%);fill-opacity:1;" d="M 30.015625 6.25 C 36.367188 6.253906 42.324219 8.722656 46.804688 13.207031 C 51.285156 17.691406 53.753906 23.652344 53.75 29.992188 C 53.746094 43.074219 43.097656 53.71875 30.015625 53.71875 L 30.007812 53.71875 C 26.035156 53.714844 22.132812 52.71875 18.667969 50.828125 L 6.085938 54.128906 L 9.453125 41.835938 C 7.375 38.238281 6.28125 34.15625 6.285156 29.972656 C 6.289062 16.890625 16.933594 6.25 30.015625 6.25 M 30.015625 53.71875 L 30.015625 53.71875 M 30.015625 53.71875 L 30.015625 53.71875 M 30.015625 5 C 16.246094 5 5.039062 16.203125 5.035156 29.972656 C 5.03125 34.183594 6.09375 38.328125 8.109375 42 L 4.878906 53.800781 C 4.761719 54.230469 4.882812 54.691406 5.195312 55.007812 C 5.433594 55.25 5.753906 55.378906 6.085938 55.378906 C 6.191406 55.378906 6.296875 55.367188 6.402344 55.339844 L 18.511719 52.164062 C 22.046875 54 26.007812 54.96875 30.007812 54.96875 C 43.789062 54.96875 54.996094 43.765625 55 29.992188 C 55.003906 23.320312 52.40625 17.046875 47.691406 12.324219 C 42.972656 7.605469 36.695312 5.003906 30.015625 5 Z M 30.015625 5 "/>
<path style=" stroke:none;fill-rule:evenodd;fill:rgb(25.098039%,76.470588%,31.764706%);fill-opacity:1;" d="M 43.96875 16.039062 C 40.246094 12.3125 35.292969 10.257812 30.023438 10.257812 C 19.144531 10.257812 10.296875 19.101562 10.289062 29.976562 C 10.289062 33.703125 11.332031 37.328125 13.304688 40.46875 L 13.777344 41.214844 L 11.78125 48.492188 L 19.25 46.535156 L 19.96875 46.960938 C 22.996094 48.761719 26.46875 49.710938 30.011719 49.710938 L 30.015625 49.710938 C 40.890625 49.710938 49.738281 40.863281 49.742188 29.992188 C 49.742188 24.722656 47.695312 19.765625 43.96875 16.039062 Z M 43.96875 16.039062 "/>
<path style=" stroke:none;fill-rule:evenodd;fill:rgb(100%,100%,100%);fill-opacity:1;" d="M 24.085938 20.054688 C 23.640625 19.070312 23.171875 19.046875 22.75 19.03125 C 22.402344 19.015625 22.007812 19.015625 21.613281 19.015625 C 21.21875 19.015625 20.578125 19.167969 20.03125 19.761719 C 19.488281 20.355469 17.957031 21.789062 17.957031 24.703125 C 17.957031 27.621094 20.082031 30.441406 20.378906 30.835938 C 20.671875 31.234375 24.480469 37.410156 30.507812 39.789062 C 35.515625 41.765625 36.535156 41.371094 37.625 41.273438 C 38.710938 41.171875 41.132812 39.839844 41.625 38.453125 C 42.121094 37.070312 42.121094 35.882812 41.972656 35.636719 C 41.824219 35.386719 41.429688 35.238281 40.835938 34.941406 C 40.242188 34.644531 37.328125 33.210938 36.785156 33.015625 C 36.238281 32.816406 35.84375 32.71875 35.449219 33.3125 C 35.054688 33.902344 33.917969 35.238281 33.570312 35.636719 C 33.226562 36.03125 32.878906 36.082031 32.285156 35.785156 C 31.695312 35.484375 29.785156 34.859375 27.515625 32.839844 C 25.753906 31.269531 24.566406 29.328125 24.21875 28.734375 C 23.871094 28.140625 24.179688 27.820312 24.480469 27.523438 C 24.746094 27.257812 25.070312 26.832031 25.367188 26.484375 C 25.664062 26.140625 25.765625 25.890625 25.960938 25.496094 C 26.160156 25.101562 26.058594 24.753906 25.910156 24.457031 C 25.765625 24.160156 24.613281 21.230469 24.085938 20.054688 Z M 24.085938 20.054688 "/>
</g>
</svg>
